<?xml version="1.0" standalone="no"?>
<!DOCTYPE svg PUBLIC "-//W3C//DTD SVG 20010904//EN"
 "http://www.w3.org/TR/2001/REC-SVG-20010904/DTD/svg10.dtd">
<svg version="1.0" xmlns="http://www.w3.org/2000/svg"
 width="105.000000pt" height="105.000000pt" viewBox="0 0 105.000000 105.000000"
 preserveAspectRatio="xMidYMid meet">
<metadata>
Created by potrace 1.14, written by Peter Selinger 2001-2017
</metadata>
<g transform="translate(0.000000,105.000000) scale(0.100000,-0.100000)"
fill="#000000" stroke="none">
<path d="M252 858 c-48 -16 -116 -81 -141 -133 -28 -59 -28 -144 0 -205 27
-59 279 -315 327 -331 58 -19 99 -4 169 63 61 59 71 79 55 106 -20 30 -49 20
-103 -34 -34 -34 -62 -54 -76 -54 -16 0 -59 36 -141 118 -149 149 -163 168
-164 231 -3 132 141 206 255 131 l46 -31 54 31 c83 47 164 37 218 -27 30 -36
53 -45 72 -30 30 25 27 46 -11 89 -53 59 -120 88 -196 84 -34 -2 -78 -11 -99
-22 -37 -17 -38 -17 -69 0 -37 23 -148 30 -196 14z"/>
<path d="M510 635 c-40 -40 -49 -45 -90 -45 -49 0 -70 -13 -70 -41 0 -33 29
-49 86 -49 48 0 58 4 94 36 36 32 42 35 53 21 52 -67 124 -137 139 -137 10 0
38 19 61 42 35 35 49 42 85 44 75 4 92 11 92 42 0 38 -24 49 -104 47 -64 -2
-71 -4 -97 -33 -29 -32 -45 -39 -51 -23 -8 23 -123 141 -138 141 -9 0 -36 -20
-60 -45z"/>
</g>
</svg>
